# Blender 4.0.2
# www.blender.org
mtllib Pickaxe.mtl
o Untitled
v -0.000000 -0.100000 0.000000
v -0.000000 -0.000000 0.000000
v -0.000000 -0.100000 0.100000
v -0.000000 -0.000000 0.100000
v -0.000000 -0.100000 0.200000
v -0.000000 -0.000000 0.200000
v 0.100000 -0.100000 0.200000
v 0.100000 -0.000000 0.200000
v 0.100000 -0.100000 0.300000
v 0.100000 -0.000000 0.300000
v 0.200000 -0.100000 0.300000
v 0.200000 -0.000000 0.300000
v 0.200000 -0.100000 0.400000
v 0.200000 -0.000000 0.400000
v 0.300000 -0.100000 0.400000
v 0.300000 -0.000000 0.400000
v 0.300000 -0.100000 0.500000
v 0.300000 -0.000000 0.500000
v 0.300000 -0.100000 1.100000
v 0.300000 -0.000000 1.100000
v 0.300000 -0.100000 1.200000
v 0.300000 -0.000000 1.200000
v 0.400000 -0.100000 0.500000
v 0.400000 -0.000000 0.500000
v 0.400000 -0.100000 0.600000
v 0.400000 -0.000000 0.600000
v 0.400000 -0.100000 1.000000
v 0.400000 -0.000000 1.000000
v 0.400000 -0.100000 1.100000
v 0.400000 -0.000000 1.100000
v 0.400000 -0.100000 1.200000
v 0.400000 -0.000000 1.200000
v 0.400000 -0.100000 1.300000
v 0.400000 -0.000000 1.300000
v 0.500000 -0.100000 0.600000
v 0.500000 -0.000000 0.600000
v 0.500000 -0.100000 0.700000
v 0.500000 -0.000000 0.700000
v 0.600000 -0.100000 0.700000
v 0.600000 -0.000000 0.700000
v 0.600000 -0.100000 0.800000
v 0.600000 -0.000000 0.800000
v 0.700000 -0.100000 0.800000
v 0.700000 -0.000000 0.800000
v 0.700000 -0.100000 0.900000
v 0.700000 -0.000000 0.900000
v 0.800000 -0.100000 0.900000
v 0.800000 -0.000000 0.900000
v 0.800000 -0.100000 1.000000
v 0.800000 -0.000000 1.000000
v 1.000000 -0.100000 0.400000
v 1.000000 -0.000000 0.400000
v 1.000000 -0.100000 0.800000
v 1.000000 -0.000000 0.800000
v 1.100000 -0.100000 0.300000
v 1.100000 -0.000000 0.300000
v 1.100000 -0.100000 0.400000
v 1.100000 -0.000000 0.400000
v 0.200000 -0.100000 0.000000
v 0.200000 -0.000000 0.000000
v 0.200000 -0.100000 0.100000
v 0.200000 -0.000000 0.100000
v 0.300000 -0.100000 0.100000
v 0.300000 -0.000000 0.100000
v 0.300000 -0.100000 0.200000
v 0.300000 -0.000000 0.200000
v 0.400000 -0.100000 0.200000
v 0.400000 -0.000000 0.200000
v 0.400000 -0.100000 0.300000
v 0.400000 -0.000000 0.300000
v 0.500000 -0.100000 0.300000
v 0.500000 -0.000000 0.300000
v 0.500000 -0.100000 0.400000
v 0.500000 -0.000000 0.400000
v 0.600000 -0.100000 0.400000
v 0.600000 -0.000000 0.400000
v 0.600000 -0.100000 0.500000
v 0.600000 -0.000000 0.500000
v 0.700000 -0.100000 0.500000
v 0.700000 -0.000000 0.500000
v 0.700000 -0.100000 0.600000
v 0.700000 -0.000000 0.600000
v 0.800000 -0.100000 0.600000
v 0.800000 -0.000000 0.600000
v 0.800000 -0.100000 0.700000
v 0.800000 -0.000000 0.700000
v 0.900000 -0.100000 0.700000
v 0.900000 -0.000000 0.700000
v 0.900000 -0.100000 0.800000
v 0.900000 -0.000000 0.800000
v 0.900000 -0.100000 1.200000
v 0.900000 -0.000000 1.200000
v 0.900000 -0.100000 1.300000
v 0.900000 -0.000000 1.300000
v 1.200000 -0.100000 0.300000
v 1.200000 -0.000000 0.300000
v 1.200000 -0.100000 0.400000
v 1.200000 -0.000000 0.400000
v 1.200000 -0.100000 0.900000
v 1.200000 -0.000000 0.900000
v 1.200000 -0.100000 1.000000
v 1.200000 -0.000000 1.000000
v 1.200000 -0.100000 1.100000
v 1.200000 -0.000000 1.100000
v 1.200000 -0.100000 1.200000
v 1.200000 -0.000000 1.200000
v 1.300000 -0.100000 0.400000
v 1.300000 -0.000000 0.400000
v 1.300000 -0.100000 0.900000
v 1.300000 -0.000000 0.900000
v -0.000000 -0.100000 0.000000
v -0.000000 -0.100000 0.100000
v -0.000000 -0.100000 0.200000
v 0.100000 -0.100000 0.100000
v 0.100000 -0.100000 0.200000
v 0.100000 -0.100000 0.300000
v 0.200000 -0.100000 0.000000
v 0.200000 -0.100000 0.100000
v 0.200000 -0.100000 0.200000
v 0.200000 -0.100000 0.300000
v 0.200000 -0.100000 0.400000
v 0.300000 -0.100000 0.100000
v 0.300000 -0.100000 0.200000
v 0.300000 -0.100000 0.300000
v 0.300000 -0.100000 0.400000
v 0.300000 -0.100000 0.500000
v 0.300000 -0.100000 1.100000
v 0.300000 -0.100000 1.200000
v 0.400000 -0.100000 0.200000
v 0.400000 -0.100000 0.300000
v 0.400000 -0.100000 0.400000
v 0.400000 -0.100000 0.500000
v 0.400000 -0.100000 0.600000
v 0.400000 -0.100000 1.000000
v 0.400000 -0.100000 1.100000
v 0.400000 -0.100000 1.200000
v 0.400000 -0.100000 1.300000
v 0.500000 -0.100000 0.300000
v 0.500000 -0.100000 0.400000
v 0.500000 -0.100000 0.500000
v 0.500000 -0.100000 0.600000
v 0.500000 -0.100000 0.700000
v 0.500000 -0.100000 1.000000
v 0.500000 -0.100000 1.100000
v 0.500000 -0.100000 1.200000
v 0.600000 -0.100000 0.400000
v 0.600000 -0.100000 0.500000
v 0.600000 -0.100000 0.600000
v 0.600000 -0.100000 0.700000
v 0.600000 -0.100000 0.800000
v 0.600000 -0.100000 1.100000
v 0.600000 -0.100000 1.200000
v 0.700000 -0.100000 0.500000
v 0.700000 -0.100000 0.600000
v 0.700000 -0.100000 0.700000
v 0.700000 -0.100000 0.800000
v 0.700000 -0.100000 0.900000
v 0.800000 -0.100000 0.600000
v 0.800000 -0.100000 0.700000
v 0.800000 -0.100000 0.800000
v 0.800000 -0.100000 0.900000
v 0.800000 -0.100000 1.000000
v 0.800000 -0.100000 1.100000
v 0.800000 -0.100000 1.200000
v 0.900000 -0.100000 0.700000
v 0.900000 -0.100000 0.800000
v 0.900000 -0.100000 0.900000
v 0.900000 -0.100000 1.000000
v 0.900000 -0.100000 1.100000
v 0.900000 -0.100000 1.200000
v 0.900000 -0.100000 1.300000
v 1.000000 -0.100000 0.400000
v 1.000000 -0.100000 0.800000
v 1.000000 -0.100000 0.900000
v 1.000000 -0.100000 1.000000
v 1.000000 -0.100000 1.100000
v 1.000000 -0.100000 1.200000
v 1.100000 -0.100000 0.300000
v 1.100000 -0.100000 0.400000
v 1.100000 -0.100000 0.500000
v 1.100000 -0.100000 0.600000
v 1.100000 -0.100000 0.800000
v 1.100000 -0.100000 0.900000
v 1.100000 -0.100000 1.000000
v 1.100000 -0.100000 1.100000
v 1.100000 -0.100000 1.200000
v 1.200000 -0.100000 0.300000
v 1.200000 -0.100000 0.400000
v 1.200000 -0.100000 0.500000
v 1.200000 -0.100000 0.600000
v 1.200000 -0.100000 0.800000
v 1.200000 -0.100000 0.900000
v 1.200000 -0.100000 1.000000
v 1.200000 -0.100000 1.100000
v 1.200000 -0.100000 1.200000
v 1.300000 -0.100000 0.400000
v 1.300000 -0.100000 0.900000
v -0.000000 -0.000000 0.000000
v -0.000000 -0.000000 0.100000
v -0.000000 -0.000000 0.200000
v 0.100000 -0.000000 0.100000
v 0.100000 -0.000000 0.200000
v 0.100000 -0.000000 0.300000
v 0.200000 -0.000000 0.000000
v 0.200000 -0.000000 0.100000
v 0.200000 -0.000000 0.200000
v 0.200000 -0.000000 0.300000
v 0.200000 -0.000000 0.400000
v 0.300000 -0.000000 0.100000
v 0.300000 -0.000000 0.200000
v 0.300000 -0.000000 0.300000
v 0.300000 -0.000000 0.400000
v 0.300000 -0.000000 0.500000
v 0.300000 -0.000000 1.100000
v 0.300000 -0.000000 1.200000
v 0.400000 -0.000000 0.200000
v 0.400000 -0.000000 0.300000
v 0.400000 -0.000000 0.400000
v 0.400000 -0.000000 0.500000
v 0.400000 -0.000000 0.600000
v 0.400000 -0.000000 1.000000
v 0.400000 -0.000000 1.100000
v 0.400000 -0.000000 1.200000
v 0.400000 -0.000000 1.300000
v 0.500000 -0.000000 0.300000
v 0.500000 -0.000000 0.400000
v 0.500000 -0.000000 0.500000
v 0.500000 -0.000000 0.600000
v 0.500000 -0.000000 0.700000
v 0.500000 -0.000000 1.000000
v 0.500000 -0.000000 1.100000
v 0.500000 -0.000000 1.200000
v 0.600000 -0.000000 0.400000
v 0.600000 -0.000000 0.500000
v 0.600000 -0.000000 0.600000
v 0.600000 -0.000000 0.700000
v 0.600000 -0.000000 0.800000
v 0.600000 -0.000000 1.100000
v 0.600000 -0.000000 1.200000
v 0.700000 -0.000000 0.500000
v 0.700000 -0.000000 0.600000
v 0.700000 -0.000000 0.700000
v 0.700000 -0.000000 0.800000
v 0.700000 -0.000000 0.900000
v 0.800000 -0.000000 0.600000
v 0.800000 -0.000000 0.700000
v 0.800000 -0.000000 0.800000
v 0.800000 -0.000000 0.900000
v 0.800000 -0.000000 1.000000
v 0.800000 -0.000000 1.100000
v 0.800000 -0.000000 1.200000
v 0.900000 -0.000000 0.700000
v 0.900000 -0.000000 0.800000
v 0.900000 -0.000000 0.900000
v 0.900000 -0.000000 1.000000
v 0.900000 -0.000000 1.100000
v 0.900000 -0.000000 1.200000
v 0.900000 -0.000000 1.300000
v 1.000000 -0.000000 0.400000
v 1.000000 -0.000000 0.800000
v 1.000000 -0.000000 0.900000
v 1.000000 -0.000000 1.000000
v 1.000000 -0.000000 1.100000
v 1.000000 -0.000000 1.200000
v 1.100000 -0.000000 0.300000
v 1.100000 -0.000000 0.400000
v 1.100000 -0.000000 0.500000
v 1.100000 -0.000000 0.600000
v 1.100000 -0.000000 0.800000
v 1.100000 -0.000000 0.900000
v 1.100000 -0.000000 1.000000
v 1.100000 -0.000000 1.100000
v 1.100000 -0.000000 1.200000
v 1.200000 -0.000000 0.300000
v 1.200000 -0.000000 0.400000
v 1.200000 -0.000000 0.500000
v 1.200000 -0.000000 0.600000
v 1.200000 -0.000000 0.800000
v 1.200000 -0.000000 0.900000
v 1.200000 -0.000000 1.000000
v 1.200000 -0.000000 1.100000
v 1.200000 -0.000000 1.200000
v 1.300000 -0.000000 0.400000
v 1.300000 -0.000000 0.900000
v -0.000000 -0.100000 0.000000
v 0.200000 -0.100000 0.000000
v -0.000000 -0.000000 0.000000
v 0.200000 -0.000000 0.000000
v 0.200000 -0.100000 0.100000
v 0.300000 -0.100000 0.100000
v 0.200000 -0.000000 0.100000
v 0.300000 -0.000000 0.100000
v 0.300000 -0.100000 0.200000
v 0.400000 -0.100000 0.200000
v 0.300000 -0.000000 0.200000
v 0.400000 -0.000000 0.200000
v 0.400000 -0.100000 0.300000
v 0.500000 -0.100000 0.300000
v 1.100000 -0.100000 0.300000
v 1.200000 -0.100000 0.300000
v 0.400000 -0.000000 0.300000
v 0.500000 -0.000000 0.300000
v 1.100000 -0.000000 0.300000
v 1.200000 -0.000000 0.300000
v 0.500000 -0.100000 0.400000
v 0.600000 -0.100000 0.400000
v 1.000000 -0.100000 0.400000
v 1.100000 -0.100000 0.400000
v 1.200000 -0.100000 0.400000
v 1.300000 -0.100000 0.400000
v 0.500000 -0.000000 0.400000
v 0.600000 -0.000000 0.400000
v 1.000000 -0.000000 0.400000
v 1.100000 -0.000000 0.400000
v 1.200000 -0.000000 0.400000
v 1.300000 -0.000000 0.400000
v 0.600000 -0.100000 0.500000
v 0.700000 -0.100000 0.500000
v 0.600000 -0.000000 0.500000
v 0.700000 -0.000000 0.500000
v 0.700000 -0.100000 0.600000
v 0.800000 -0.100000 0.600000
v 0.700000 -0.000000 0.600000
v 0.800000 -0.000000 0.600000
v 0.800000 -0.100000 0.700000
v 0.900000 -0.100000 0.700000
v 0.800000 -0.000000 0.700000
v 0.900000 -0.000000 0.700000
v 0.900000 -0.100000 0.800000
v 1.000000 -0.100000 0.800000
v 0.900000 -0.000000 0.800000
v 1.000000 -0.000000 0.800000
v 0.400000 -0.100000 1.000000
v 0.500000 -0.100000 1.000000
v 0.800000 -0.100000 1.000000
v 0.400000 -0.000000 1.000000
v 0.500000 -0.000000 1.000000
v 0.800000 -0.000000 1.000000
v 0.300000 -0.100000 1.100000
v 0.400000 -0.100000 1.100000
v 0.300000 -0.000000 1.100000
v 0.400000 -0.000000 1.100000
v -0.000000 -0.100000 0.200000
v 0.100000 -0.100000 0.200000
v -0.000000 -0.000000 0.200000
v 0.100000 -0.000000 0.200000
v 0.100000 -0.100000 0.300000
v 0.200000 -0.100000 0.300000
v 0.100000 -0.000000 0.300000
v 0.200000 -0.000000 0.300000
v 0.200000 -0.100000 0.400000
v 0.300000 -0.100000 0.400000
v 0.200000 -0.000000 0.400000
v 0.300000 -0.000000 0.400000
v 0.300000 -0.100000 0.500000
v 0.400000 -0.100000 0.500000
v 0.300000 -0.000000 0.500000
v 0.400000 -0.000000 0.500000
v 0.400000 -0.100000 0.600000
v 0.500000 -0.100000 0.600000
v 0.400000 -0.000000 0.600000
v 0.500000 -0.000000 0.600000
v 0.500000 -0.100000 0.700000
v 0.600000 -0.100000 0.700000
v 0.500000 -0.000000 0.700000
v 0.600000 -0.000000 0.700000
v 0.600000 -0.100000 0.800000
v 0.700000 -0.100000 0.800000
v 0.600000 -0.000000 0.800000
v 0.700000 -0.000000 0.800000
v 0.700000 -0.100000 0.900000
v 0.800000 -0.100000 0.900000
v 1.200000 -0.100000 0.900000
v 1.300000 -0.100000 0.900000
v 0.700000 -0.000000 0.900000
v 0.800000 -0.000000 0.900000
v 1.200000 -0.000000 0.900000
v 1.300000 -0.000000 0.900000
v 0.300000 -0.100000 1.200000
v 0.400000 -0.100000 1.200000
v 0.900000 -0.100000 1.200000
v 1.000000 -0.100000 1.200000
v 1.100000 -0.100000 1.200000
v 1.200000 -0.100000 1.200000
v 0.300000 -0.000000 1.200000
v 0.400000 -0.000000 1.200000
v 0.900000 -0.000000 1.200000
v 1.000000 -0.000000 1.200000
v 1.100000 -0.000000 1.200000
v 1.200000 -0.000000 1.200000
v 0.400000 -0.100000 1.300000
v 0.900000 -0.100000 1.300000
v 0.400000 -0.000000 1.300000
v 0.900000 -0.000000 1.300000
vn -1.0000 -0.0000 -0.0000
vn 1.0000 -0.0000 -0.0000
vn -0.0000 -1.0000 -0.0000
vn -0.0000 1.0000 -0.0000
vn -0.0000 -0.0000 -1.0000
vn -0.0000 -0.0000 1.0000
vt 0.974609 0.500000
vt 0.978516 0.500000
vt 0.994141 0.500000
vt 0.966797 0.500000
vt 0.982422 0.500000
vt 0.970703 0.500000
vt 0.986328 0.500000
vt 0.962891 0.500000
vt 0.990234 0.500000
s 0
usemtl palette
f 3/1/1 2/1/1 1/1/1
f 4/1/1 2/1/1 3/1/1
f 5/2/1 4/2/1 3/2/1
f 6/2/1 4/2/1 5/2/1
f 9/2/1 8/2/1 7/2/1
f 10/2/1 8/2/1 9/2/1
f 13/2/1 12/2/1 11/2/1
f 14/2/1 12/2/1 13/2/1
f 17/2/1 16/2/1 15/2/1
f 18/2/1 16/2/1 17/2/1
f 21/3/1 20/3/1 19/3/1
f 22/3/1 20/3/1 21/3/1
f 25/2/1 24/2/1 23/2/1
f 26/2/1 24/2/1 25/2/1
f 29/3/1 28/3/1 27/3/1
f 30/3/1 28/3/1 29/3/1
f 33/3/1 32/3/1 31/3/1
f 34/3/1 32/3/1 33/3/1
f 37/2/1 36/2/1 35/2/1
f 38/2/1 36/2/1 37/2/1
f 41/2/1 40/2/1 39/2/1
f 42/2/1 40/2/1 41/2/1
f 45/2/1 44/2/1 43/2/1
f 46/2/1 44/2/1 45/2/1
f 49/2/1 48/2/1 47/2/1
f 50/2/1 48/2/1 49/2/1
f 53/4/1 52/4/1 51/4/1
f 54/4/1 52/4/1 53/4/1
f 57/4/1 56/4/1 55/4/1
f 58/4/1 56/4/1 57/4/1
f 59/1/2 60/1/2 61/1/2
f 61/1/2 60/1/2 62/1/2
f 63/1/2 64/1/2 65/1/2
f 65/1/2 64/1/2 66/1/2
f 67/1/2 68/1/2 69/1/2
f 69/1/2 68/1/2 70/1/2
f 71/1/2 72/1/2 73/1/2
f 73/1/2 72/1/2 74/1/2
f 75/1/2 76/1/2 77/1/2
f 77/1/2 76/1/2 78/1/2
f 79/1/2 80/1/2 81/1/2
f 81/1/2 80/1/2 82/1/2
f 83/1/2 84/1/2 85/1/2
f 85/1/2 84/1/2 86/1/2
f 87/1/2 88/1/2 89/1/2
f 89/1/2 88/1/2 90/1/2
f 91/3/2 92/3/2 93/3/2
f 93/3/2 92/3/2 94/3/2
f 95/4/2 96/4/2 97/4/2
f 97/4/2 96/4/2 98/4/2
f 99/4/2 100/4/2 101/4/2
f 101/4/2 100/4/2 102/4/2
f 101/1/2 102/1/2 103/1/2
f 103/1/2 102/1/2 104/1/2
f 103/5/2 104/5/2 105/5/2
f 105/5/2 104/5/2 106/5/2
f 107/4/2 108/4/2 109/4/2
f 109/4/2 108/4/2 110/4/2
f 114/1/3 112/1/3 111/1/3
f 114/2/3 113/2/3 112/2/3
f 115/2/3 113/2/3 114/2/3
f 117/1/3 114/1/3 111/1/3
f 118/6/3 115/6/3 114/6/3
f 118/1/3 114/1/3 117/1/3
f 119/2/3 116/2/3 115/2/3
f 119/6/3 115/6/3 118/6/3
f 120/2/3 116/2/3 119/2/3
f 122/1/3 119/1/3 118/1/3
f 123/5/3 120/5/3 119/5/3
f 123/1/3 119/1/3 122/1/3
f 124/2/3 121/2/3 120/2/3
f 124/5/3 120/5/3 123/5/3
f 125/2/3 121/2/3 124/2/3
f 129/1/3 124/1/3 123/1/3
f 130/6/3 125/6/3 124/6/3
f 130/1/3 124/1/3 129/1/3
f 131/2/3 126/2/3 125/2/3
f 131/6/3 125/6/3 130/6/3
f 132/2/3 126/2/3 131/2/3
f 135/3/3 128/3/3 127/3/3
f 136/3/3 128/3/3 135/3/3
f 138/1/3 131/1/3 130/1/3
f 139/5/3 132/5/3 131/5/3
f 139/1/3 131/1/3 138/1/3
f 140/2/3 133/2/3 132/2/3
f 140/5/3 132/5/3 139/5/3
f 141/2/3 133/2/3 140/2/3
f 143/3/3 135/3/3 134/3/3
f 144/7/3 136/7/3 135/7/3
f 144/3/3 135/3/3 143/3/3
f 145/3/3 137/3/3 136/3/3
f 145/7/3 136/7/3 144/7/3
f 146/1/3 140/1/3 139/1/3
f 147/6/3 141/6/3 140/6/3
f 147/1/3 140/1/3 146/1/3
f 148/2/3 142/2/3 141/2/3
f 148/6/3 141/6/3 147/6/3
f 149/2/3 142/2/3 148/2/3
f 151/4/3 144/4/3 143/4/3
f 151/8/3 145/8/3 144/8/3
f 152/3/3 137/3/3 145/3/3
f 152/8/3 145/8/3 151/8/3
f 153/1/3 148/1/3 147/1/3
f 154/5/3 149/5/3 148/5/3
f 154/1/3 148/1/3 153/1/3
f 155/2/3 150/2/3 149/2/3
f 155/5/3 149/5/3 154/5/3
f 156/2/3 150/2/3 155/2/3
f 158/1/3 155/1/3 154/1/3
f 159/6/3 156/6/3 155/6/3
f 159/1/3 155/1/3 158/1/3
f 160/2/3 157/2/3 156/2/3
f 160/6/3 156/6/3 159/6/3
f 161/2/3 157/2/3 160/2/3
f 162/4/3 151/4/3 143/4/3
f 163/9/3 152/9/3 151/9/3
f 163/4/3 151/4/3 162/4/3
f 164/3/3 137/3/3 152/3/3
f 164/9/3 152/9/3 163/9/3
f 165/1/3 160/1/3 159/1/3
f 166/5/3 161/5/3 160/5/3
f 166/1/3 160/1/3 165/1/3
f 167/2/3 162/2/3 161/2/3
f 167/5/3 161/5/3 166/5/3
f 168/9/3 163/9/3 162/9/3
f 168/2/3 162/2/3 167/2/3
f 169/8/3 164/8/3 163/8/3
f 169/9/3 163/9/3 168/9/3
f 170/3/3 137/3/3 164/3/3
f 170/8/3 164/8/3 169/8/3
f 171/3/3 137/3/3 170/3/3
f 173/1/3 167/1/3 166/1/3
f 174/8/3 168/8/3 167/8/3
f 174/1/3 167/1/3 173/1/3
f 175/9/3 169/9/3 168/9/3
f 175/8/3 168/8/3 174/8/3
f 176/3/3 170/3/3 169/3/3
f 176/9/3 169/9/3 175/9/3
f 177/3/3 170/3/3 176/3/3
f 179/4/3 173/4/3 172/4/3
f 180/4/3 173/4/3 179/4/3
f 181/4/3 173/4/3 180/4/3
f 182/9/3 174/9/3 173/9/3
f 182/4/3 173/4/3 181/4/3
f 182/9/3 175/9/3 174/9/3
f 183/9/3 175/9/3 182/9/3
f 184/6/3 176/6/3 175/6/3
f 184/9/3 175/9/3 183/9/3
f 185/2/3 177/2/3 176/2/3
f 185/6/3 176/6/3 184/6/3
f 186/2/3 177/2/3 185/2/3
f 187/4/3 179/4/3 178/4/3
f 188/7/3 180/7/3 179/7/3
f 188/4/3 179/4/3 187/4/3
f 189/8/3 181/8/3 180/8/3
f 189/7/3 180/7/3 188/7/3
f 190/9/3 182/9/3 181/9/3
f 190/8/3 181/8/3 189/8/3
f 191/8/3 183/8/3 182/8/3
f 191/9/3 182/9/3 190/9/3
f 192/4/3 184/4/3 183/4/3
f 192/8/3 183/8/3 191/8/3
f 193/1/3 185/1/3 184/1/3
f 193/4/3 184/4/3 192/4/3
f 194/5/3 186/5/3 185/5/3
f 194/1/3 185/1/3 193/1/3
f 195/5/3 186/5/3 194/5/3
f 196/4/3 190/4/3 189/4/3
f 196/4/3 192/4/3 191/4/3
f 196/4/3 189/4/3 188/4/3
f 196/4/3 191/4/3 190/4/3
f 197/4/3 192/4/3 196/4/3
f 198/1/4 199/1/4 201/1/4
f 199/2/4 200/2/4 201/2/4
f 201/2/4 200/2/4 202/2/4
f 198/1/4 201/1/4 204/1/4
f 201/6/4 202/6/4 205/6/4
f 204/1/4 201/1/4 205/1/4
f 202/2/4 203/2/4 206/2/4
f 205/6/4 202/6/4 206/6/4
f 206/2/4 203/2/4 207/2/4
f 205/1/4 206/1/4 209/1/4
f 206/5/4 207/5/4 210/5/4
f 209/1/4 206/1/4 210/1/4
f 207/2/4 208/2/4 211/2/4
f 210/5/4 207/5/4 211/5/4
f 211/2/4 208/2/4 212/2/4
f 210/1/4 211/1/4 216/1/4
f 211/6/4 212/6/4 217/6/4
f 216/1/4 211/1/4 217/1/4
f 212/2/4 213/2/4 218/2/4
f 217/6/4 212/6/4 218/6/4
f 218/2/4 213/2/4 219/2/4
f 214/3/4 215/3/4 222/3/4
f 222/3/4 215/3/4 223/3/4
f 217/1/4 218/1/4 225/1/4
f 218/5/4 219/5/4 226/5/4
f 225/1/4 218/1/4 226/1/4
f 219/2/4 220/2/4 227/2/4
f 226/5/4 219/5/4 227/5/4
f 227/2/4 220/2/4 228/2/4
f 221/3/4 222/3/4 230/3/4
f 222/7/4 223/7/4 231/7/4
f 230/3/4 222/3/4 231/3/4
f 223/3/4 224/3/4 232/3/4
f 231/7/4 223/7/4 232/7/4
f 226/1/4 227/1/4 233/1/4
f 227/6/4 228/6/4 234/6/4
f 233/1/4 227/1/4 234/1/4
f 228/2/4 229/2/4 235/2/4
f 234/6/4 228/6/4 235/6/4
f 235/2/4 229/2/4 236/2/4
f 230/4/4 231/4/4 238/4/4
f 231/8/4 232/8/4 238/8/4
f 232/3/4 224/3/4 239/3/4
f 238/8/4 232/8/4 239/8/4
f 234/1/4 235/1/4 240/1/4
f 235/5/4 236/5/4 241/5/4
f 240/1/4 235/1/4 241/1/4
f 236/2/4 237/2/4 242/2/4
f 241/5/4 236/5/4 242/5/4
f 242/2/4 237/2/4 243/2/4
f 241/1/4 242/1/4 245/1/4
f 242/6/4 243/6/4 246/6/4
f 245/1/4 242/1/4 246/1/4
f 243/2/4 244/2/4 247/2/4
f 246/6/4 243/6/4 247/6/4
f 247/2/4 244/2/4 248/2/4
f 230/4/4 238/4/4 249/4/4
f 238/9/4 239/9/4 250/9/4
f 249/4/4 238/4/4 250/4/4
f 239/3/4 224/3/4 251/3/4
f 250/9/4 239/9/4 251/9/4
f 246/1/4 247/1/4 252/1/4
f 247/5/4 248/5/4 253/5/4
f 252/1/4 247/1/4 253/1/4
f 248/2/4 249/2/4 254/2/4
f 253/5/4 248/5/4 254/5/4
f 249/9/4 250/9/4 255/9/4
f 254/2/4 249/2/4 255/2/4
f 250/8/4 251/8/4 256/8/4
f 255/9/4 250/9/4 256/9/4
f 251/3/4 224/3/4 257/3/4
f 256/8/4 251/8/4 257/8/4
f 257/3/4 224/3/4 258/3/4
f 253/1/4 254/1/4 260/1/4
f 254/8/4 255/8/4 261/8/4
f 260/1/4 254/1/4 261/1/4
f 255/9/4 256/9/4 262/9/4
f 261/8/4 255/8/4 262/8/4
f 256/3/4 257/3/4 263/3/4
f 262/9/4 256/9/4 263/9/4
f 263/3/4 257/3/4 264/3/4
f 259/4/4 260/4/4 266/4/4
f 266/4/4 260/4/4 267/4/4
f 267/4/4 260/4/4 268/4/4
f 260/9/4 261/9/4 269/9/4
f 268/4/4 260/4/4 269/4/4
f 261/9/4 262/9/4 269/9/4
f 269/9/4 262/9/4 270/9/4
f 262/6/4 263/6/4 271/6/4
f 270/9/4 262/9/4 271/9/4
f 263/2/4 264/2/4 272/2/4
f 271/6/4 263/6/4 272/6/4
f 272/2/4 264/2/4 273/2/4
f 265/4/4 266/4/4 274/4/4
f 266/7/4 267/7/4 275/7/4
f 274/4/4 266/4/4 275/4/4
f 267/8/4 268/8/4 276/8/4
f 275/7/4 267/7/4 276/7/4
f 268/9/4 269/9/4 277/9/4
f 276/8/4 268/8/4 277/8/4
f 269/8/4 270/8/4 278/8/4
f 277/9/4 269/9/4 278/9/4
f 270/4/4 271/4/4 279/4/4
f 278/8/4 270/8/4 279/8/4
f 271/1/4 272/1/4 280/1/4
f 279/4/4 271/4/4 280/4/4
f 272/5/4 273/5/4 281/5/4
f 280/1/4 272/1/4 281/1/4
f 281/5/4 273/5/4 282/5/4
f 276/4/4 277/4/4 283/4/4
f 278/4/4 279/4/4 283/4/4
f 275/4/4 276/4/4 283/4/4
f 277/4/4 278/4/4 283/4/4
f 283/4/4 279/4/4 284/4/4
f 287/1/5 286/1/5 285/1/5
f 288/1/5 286/1/5 287/1/5
f 291/1/5 290/1/5 289/1/5
f 292/1/5 290/1/5 291/1/5
f 295/1/5 294/1/5 293/1/5
f 296/1/5 294/1/5 295/1/5
f 301/1/5 298/1/5 297/1/5
f 302/1/5 298/1/5 301/1/5
f 303/4/5 300/4/5 299/4/5
f 304/4/5 300/4/5 303/4/5
f 311/1/5 306/1/5 305/1/5
f 312/1/5 306/1/5 311/1/5
f 313/4/5 308/4/5 307/4/5
f 314/4/5 308/4/5 313/4/5
f 315/4/5 310/4/5 309/4/5
f 316/4/5 310/4/5 315/4/5
f 319/1/5 318/1/5 317/1/5
f 320/1/5 318/1/5 319/1/5
f 323/1/5 322/1/5 321/1/5
f 324/1/5 322/1/5 323/1/5
f 327/1/5 326/1/5 325/1/5
f 328/1/5 326/1/5 327/1/5
f 331/1/5 330/1/5 329/1/5
f 332/1/5 330/1/5 331/1/5
f 336/3/5 334/3/5 333/3/5
f 337/4/5 335/4/5 334/4/5
f 337/3/5 334/3/5 336/3/5
f 338/4/5 335/4/5 337/4/5
f 341/3/5 340/3/5 339/3/5
f 342/3/5 340/3/5 341/3/5
f 343/2/6 344/2/6 345/2/6
f 345/2/6 344/2/6 346/2/6
f 347/2/6 348/2/6 349/2/6
f 349/2/6 348/2/6 350/2/6
f 351/2/6 352/2/6 353/2/6
f 353/2/6 352/2/6 354/2/6
f 355/2/6 356/2/6 357/2/6
f 357/2/6 356/2/6 358/2/6
f 359/2/6 360/2/6 361/2/6
f 361/2/6 360/2/6 362/2/6
f 363/2/6 364/2/6 365/2/6
f 365/2/6 364/2/6 366/2/6
f 367/2/6 368/2/6 369/2/6
f 369/2/6 368/2/6 370/2/6
f 371/2/6 372/2/6 375/2/6
f 375/2/6 372/2/6 376/2/6
f 373/4/6 374/4/6 377/4/6
f 377/4/6 374/4/6 378/4/6
f 379/3/6 380/3/6 385/3/6
f 385/3/6 380/3/6 386/3/6
f 381/3/6 382/3/6 387/3/6
f 382/2/6 383/2/6 388/2/6
f 387/3/6 382/3/6 388/3/6
f 383/5/6 384/5/6 389/5/6
f 388/2/6 383/2/6 389/2/6
f 389/5/6 384/5/6 390/5/6
f 391/3/6 392/3/6 393/3/6
f 393/3/6 392/3/6 394/3/6
